#define close_hover_width 10
#define close_hover_height 10
static unsigned char close_hover_bits[] = {
   0x78, 0x00, 0xfe, 0x01, 0x32, 0x01, 0x03, 0x03, 0x87, 0x03, 0x87, 0x03,
   0x03, 0x03, 0x32, 0x01, 0xfe, 0x01, 0x78, 0x00 };
