#define desk_hover_width 10
#define desk_hover_height 10
static unsigned char desk_hover_bits[] = {
   0x78, 0x00, 0xfe, 0x01, 0x32, 0x01, 0x33, 0x03, 0xff, 0x03, 0xff, 0x03,
   0x33, 0x03, 0x32, 0x01, 0xfe, 0x01, 0x78, 0x00 };
