#define iconify_hover_width 10
#define iconify_hover_height 10
static unsigned char iconify_hover_bits[] = {
   0x78, 0x00, 0xfe, 0x01, 0xfe, 0x01, 0xff, 0x03, 0x03, 0x03, 0x03, 0x03,
   0xff, 0x03, 0xfe, 0x01, 0xfe, 0x01, 0x78, 0x00 };
