#define max_hover_width 10
#define max_hover_height 10
static unsigned char max_hover_bits[] = {
   0x78, 0x00, 0xfe, 0x01, 0xce, 0x01, 0xcf, 0x03, 0x03, 0x03, 0x03, 0x03,
   0xcf, 0x03, 0xce, 0x01, 0xfe, 0x01, 0x78, 0x00 };
