#define shade_toggled_width 10
#define shade_toggled_height 10
static unsigned char shade_toggled_bits[] = {
   0x78, 0x00, 0xfe, 0x01, 0x86, 0x01, 0x03, 0x03, 0x03, 0x03, 0x03, 0x03,
   0x03, 0x03, 0x86, 0x01, 0xfe, 0x01, 0x78, 0x00 };
